<svg xmlns="http://www.w3.org/2000/svg" xmlns:xlink="http://www.w3.org/1999/xlink" version="1.1" x="0px" y="0px" viewBox="0 0 91 91"  xml:space="preserve"><g><g><path d="M88.8,18.7h-5v-6.4c0-1-0.8-1.8-1.8-1.8H55.4c-4.9,0-8,3.2-9.8,6.5c-1.8-3.4-4.8-6.5-9.8-6.5H9.3c-1,0-1.8,0.8-1.8,1.8    v6.4h-5c-1,0-1.8,0.8-1.8,1.8v57.9c0,1,0.8,1.8,1.8,1.8h29.6l4.1,4.1c0.3,0.3,0.8,0.5,1.3,0.5h16.3c0.5,0,1-0.2,1.3-0.5l4.1-4.1    h29.6c1,0,1.8-0.8,1.8-1.8V20.5C90.6,19.5,89.8,18.7,88.8,18.7z M47.5,23.1c0-0.1,1.4-8.9,8-8.9h24.7v55.6H56.8    c-3.1,0.1-8.1,1.4-9.3,5.3h-0.1v-8.6c0-1-0.8-1.8-1.8-1.8s-1.8,0.8-1.8,1.8V75h-0.1c-1.2-3.9-6.2-5.2-9.3-5.3H11.1V14.1h24.7    c6.6,0,7.9,8.6,8,9c0,0,0.6,1,1.8,1C47.1,24.1,47.5,23.1,47.5,23.1z M86.9,76.6H58.4c-0.5,0-1,0.2-1.3,0.5L53,81.3H38.3l-4.1-4.1    c-0.3-0.3-0.8-0.5-1.3-0.5H4.3V22.4h3.1v49.2c0,1,0.8,1.8,1.8,1.8h25c0.1,0,6,0.3,6,3.4c0,1,0.8,1.8,1.8,1.8h3.5H49    c1,0,1.8-0.8,1.8-1.8c0-3.1,5.9-3.4,5.9-3.4H82c1,0,1.8-0.8,1.8-1.8V22.4h3.1V76.6z"></path><path d="M41.8,46.3c0.3,0.2,0.6,0.2,0.9,0.2c0.3,0,0.6-0.1,0.9-0.2l9.2-5.2c0.6-0.3,0.9-0.9,0.9-1.6s-0.4-1.3-0.9-1.6l-9.2-5.2    c-0.6-0.3-1.3-0.3-1.8,0c-0.6,0.3-0.9,0.9-0.9,1.6v10.4C40.9,45.4,41.2,46,41.8,46.3z M44.6,37.5l3.6,2l-3.6,2V37.5z"></path><path d="M67.6,61.5c1,0,1.8-0.8,1.8-1.8s-0.8-1.8-1.8-1.8H30.9v-0.5c0-1-0.8-1.8-1.8-1.8s-1.8,0.8-1.8,1.8v0.5h-3.6    c-1,0-1.8,0.8-1.8,1.8s0.8,1.8,1.8,1.8h3.6V62c0,1,0.8,1.8,1.8,1.8s1.8-0.8,1.8-1.8v-0.5H67.6z"></path><path d="M27,54.1h37.3c2.9,0,5.2-2.3,5.2-5.2V30.3c0-2.9-2.3-5.2-5.2-5.2H27c-2.9,0-5.2,2.3-5.2,5.2v18.6    C21.8,51.8,24.1,54.1,27,54.1z M25.5,30.3c0-0.8,0.7-1.5,1.5-1.5h37.3c0.8,0,1.5,0.7,1.5,1.5v18.6c0,0.8-0.7,1.5-1.5,1.5H27    c-0.8,0-1.5-0.7-1.5-1.5V30.3z"></path></g></g></svg>